<?xml version="1.0" encoding="utf-8"?>
<svg width="108.152" height="107.556" viewBox="0 0 108.152 107.556" fill="none" xmlns="http://www.w3.org/2000/svg">
  <defs>
    <linearGradient id="gradient_1" gradientUnits="userSpaceOnUse" x1="99.95" y1="-15.873" x2="-6.448" y2="89.238">
      <stop offset="0.077" stop-color="#FFD700" />
      <stop offset="0.905" stop-color="#FFA500" />
    </linearGradient>
  </defs>
  <path d="M4.4104 47.1134C3.14941 49.0161 -6.09265 63.1765 6.68018 75.9492C19.4531 88.7221 33.5121 80.3943 35.4001 79.1322C38.2562 77.2231 43.0482 74.0146 47.8646 66.2842L67.5712 34.389L57.4701 38.88L84.0001 0L54.2683 18.7538L58.385 8.69077L17.6753 35.2207C9.96399 40.0636 6.29871 44.2642 4.4104 47.1134ZM6.36816 51.0673C5.39307 52.5385 -0.630005 63.4879 9.24658 73.3643C19.1232 83.2409 30.9806 77.3636 32.4406 76.3877C34.6492 74.9115 39.5736 71.5799 42.9612 65.8909L58.0558 42.9967L46.6205 47.5708L69.0336 14.6372L45.2482 29.1384L49.2271 19.6687L17.7485 39.7948C11.7856 43.5396 7.82825 48.8641 6.36816 51.0673ZM21.5631 44.899C21.5631 44.899 21.6931 44.4138 22.1024 44.1798C22.4103 44.0039 23.0013 44.0001 23.0013 44.0001C23.0013 44.0001 23.5693 43.9903 23.9 44.1799C24.321 44.421 24.4396 44.899 24.4396 44.899L26.2371 51.0114L31.99 48.4944C31.99 48.4944 32.5607 48.2054 33.2484 48.3146C33.7404 48.3928 34.1472 48.854 34.1472 48.854C34.1472 48.854 34.6064 49.2972 34.6865 49.7528C34.8005 50.4022 34.5068 51.0113 34.5068 51.0113L31.9899 56.4046L38.1022 58.5619C38.1022 58.5619 38.5985 58.7491 38.8213 59.101C39.0039 59.3893 39.001 60.0001 39.001 60.0001C39.001 60.0001 39 60.5741 38.8213 60.8987C38.601 61.2988 38.1022 61.4383 38.1022 61.4383L31.99 63.2361L34.5067 68.9889C34.5067 68.9889 34.7838 69.6263 34.6865 70.2138C34.6058 70.7011 34.1471 71.1462 34.1471 71.1462C34.1471 71.1462 33.6962 71.6082 33.2483 71.685C32.6113 71.7942 31.9899 71.5058 31.9899 71.5058L26.2373 68.9889L24.4395 75.1013C24.4395 75.1013 24.2915 75.6072 23.9001 75.8199C23.5404 76.0152 23.0013 75.9997 23.0013 75.9997C23.0013 75.9997 22.4629 76.0135 22.1024 75.8199C21.6979 75.6026 21.5631 75.1013 21.5631 75.1013L19.7654 68.9889L14.0127 71.5058C14.0127 71.5058 13.4319 71.7747 12.7543 71.685C12.3104 71.6263 11.8553 71.1462 11.8553 71.1462C11.8553 71.1462 11.3936 70.6731 11.316 70.2139C11.2151 69.6156 11.4957 68.9889 11.4957 68.9889L14.0127 63.236L7.90039 61.4384C7.90039 61.4384 7.42651 61.3058 7.18127 60.8987C6.97168 60.5505 7.00146 60.0001 7.00146 60.0001C7.00146 60.0001 7.02258 59.4077 7.18127 59.101C7.40051 58.6774 7.90039 58.5619 7.90039 58.5619L14.0127 56.7642L11.4958 51.0113C11.4958 51.0113 11.2441 50.384 11.316 49.7528C11.3676 49.3011 11.8553 48.854 11.8553 48.854C11.8553 48.854 12.2982 48.3762 12.7543 48.3146C13.4014 48.2273 14.0126 48.4945 14.0126 48.4945L19.7655 51.0113L21.5631 44.899ZM22.9995 50.1817L21.1815 55.9998C21.1815 55.9998 20.8114 57.0971 20.4542 57.4543C20.0969 57.8116 18.9996 58.1816 18.9996 58.1816L13.5453 59.9997L18.9996 61.8179C18.9996 61.8179 20.0975 62.1886 20.4542 62.5452C20.8107 62.9017 21.1814 63.9997 21.1814 63.9997L22.9996 69.8177L24.8177 63.9997C24.8177 63.9997 25.1814 62.9088 25.545 62.5452C25.9086 62.1816 26.9995 61.8179 26.9995 61.8179L32.454 59.9997L26.9995 58.1816C26.9995 58.1816 25.9086 57.818 25.545 57.4543C25.1814 57.0907 24.8177 55.9998 24.8177 55.9998L22.9995 50.1817ZM14.9998 51.9999L16.4542 55.6362L18.2725 55.2726L18.6361 53.4544L14.9998 51.9999ZM27.3633 53.4544L30.9995 51.9999L29.5449 55.6362L27.7268 55.2726L27.3633 53.4544ZM18.636 66.5451L14.9998 67.9996L16.4543 64.3633L18.2725 64.727L18.636 66.5451ZM30.9995 67.9997L29.5449 64.3633L27.7268 64.7269L27.363 66.5451L30.9995 67.9997Z" fill="url(#gradient_1)" fill-rule="evenodd" stroke-width="0" stroke="#FFFFFF" transform="matrix(0.934 0.358 -0.358 0.934 29.731 0)" />
</svg>